<svg width="256" height="256" xmlns="http://www.w3.org/2000/svg">
 <metadata id="metadata16228">image/svg+xmlGreek alphabetGreek alphabetBenjaminGreek alphabet</metadata>

 <g>
  <title>background</title>
  <rect x="-1" y="-1" width="258" height="258" id="canvas_background" fill="none"/>
 </g>
 <g>
  <title>Layer 1</title>
  <g id="svg_1" stroke="null">
   <g transform="matrix(0.12909212435255188,0,0,-0.12909212435255188,1467.392499347547,201.75819088816584) " id="g16543" stroke="null">
    <path d="m-10697.19177,-305.38717l608,1387l34,0l574,-1387l-1216,0zm977,85l-405,996l-438,-996l843,0z" id="path16545" fill="#ffffff" stroke="null"/>
   </g>
   <g transform="matrix(0.14606337195541622,0,0,-0.14606337195541622,2307.7726512873173,2001.9892836017914) " id="g16671" stroke="null">
    <path d="m-15247.96968,13463.23995l-29,-287c-4.6667,-50 -7,-100 -7,-150c0,-95.3334 11,-153 33,-173c22,-20 47.6666,-30.3334 77,-31c64,0 102,40.3333 114,121l37,0c-22,-185.3334 -95.6667,-278 -221,-278c-131.3334,0 -197,75.3333 -197,226c0,76 7.3333,170.6666 22,284l37,288l-99,0c-54.6667,0 -97,-9 -127,-27c-30,-18 -58.3334,-55 -85,-111l-36,0c21.3333,73.3333 46.6666,131.3333 76,174c29.3333,42.6666 57.3333,71.6666 84,87c26.6666,15.3333 66.3333,23 119,23l492,0l0,-146l-290,0z" id="path16673" fill="#ffffff" stroke="null"/>
   </g>
  </g>
 </g>
</svg>